<?xml version="1.0" standalone="no"?>
<!DOCTYPE svg PUBLIC "-//W3C//DTD SVG 20010904//EN"
 "http://www.w3.org/TR/2001/REC-SVG-20010904/DTD/svg10.dtd">
<svg version="1.0" xmlns="http://www.w3.org/2000/svg"
 width="427.000000pt" height="640.000000pt" viewBox="0 0 427.000000 640.000000"
 preserveAspectRatio="xMidYMid meet">

<g transform="translate(0.000000,640.000000) scale(0.100000,-0.100000)"
fill="#000000" stroke="none">
<path d="M2145 4963 c-118 -25 -151 -39 -198 -84 -27 -26 -46 -52 -42 -58 3
-6 -3 -23 -14 -37 -12 -15 -21 -22 -21 -17 0 5 5 14 10 19 6 6 12 21 15 34 2
12 11 30 20 40 19 21 20 36 0 20 -8 -7 -15 -9 -15 -4 0 5 -12 -11 -27 -36 -42
-72 -70 -102 -77 -84 -4 10 -2 13 6 8 7 -4 8 -3 4 5 -4 6 -2 20 5 29 7 9 -1 4
-19 -12 -35 -33 -41 -48 -14 -40 13 5 14 4 3 -4 -8 -6 -19 -8 -26 -6 -13 5
-69 -61 -79 -93 -5 -17 -1 -29 18 -48 14 -14 20 -25 14 -25 -6 0 -16 8 -23 17
-11 15 -13 15 -25 -6 -6 -13 -13 -33 -15 -45 -1 -11 -6 -30 -11 -40 -6 -15 -4
-17 6 -11 10 6 9 2 -2 -14 -12 -16 -13 -32 -7 -64 4 -23 8 -45 9 -49 0 -5 8
-8 18 -8 13 0 14 -2 3 -9 -10 -6 -11 -20 -6 -51 5 -30 10 -38 16 -29 6 9 9 -2
9 -33 0 -27 5 -48 10 -48 6 0 10 20 10 45 0 25 5 45 11 45 5 0 7 4 4 10 -3 5
3 19 13 30 21 23 19 68 -4 77 -8 3 -14 13 -14 22 0 14 2 14 10 1 9 -13 13 -12
29 8 25 29 33 28 19 -3 -6 -14 -15 -25 -19 -25 -5 0 -6 -7 -2 -17 6 -14 9 -13
25 7 10 12 18 31 18 41 0 10 5 19 10 19 13 0 13 -37 0 -42 -6 -2 -4 -11 5 -23
14 -16 16 -17 11 -3 -3 10 -1 20 5 24 6 3 8 13 5 21 -4 9 -2 11 6 7 8 -5 9 -2
5 9 -3 10 -2 17 3 17 14 0 22 -19 14 -32 -13 -20 -12 -48 2 -48 7 0 15 6 17
13 4 9 8 9 15 -2 7 -10 9 4 6 43 -3 37 0 56 7 56 6 0 9 -6 6 -13 -2 -7 4 -32
14 -57 10 -25 18 -37 18 -28 1 15 5 16 25 7 13 -6 28 -20 32 -30 8 -17 12 -14
31 23 11 24 33 70 47 102 36 81 68 102 206 131 64 13 92 13 50 0 -22 -7 -22
-7 6 -26 16 -10 36 -19 44 -19 13 0 13 2 1 9 -11 7 -4 12 25 20 44 12 85 11
78 -1 -3 -5 -9 -6 -14 -3 -4 3 -13 -2 -20 -10 -7 -8 -21 -15 -31 -15 -10 0
-21 -4 -24 -10 -9 -15 -62 -12 -95 5 -24 12 -29 12 -33 0 -4 -9 4 -16 26 -21
52 -12 106 -5 171 23 34 14 79 26 101 27 22 1 67 15 100 30 46 22 68 26 95 21
88 -17 96 -15 106 37 6 28 -88 109 -171 147 -27 13 -54 29 -58 37 -10 17 -143
57 -159 48 -7 -4 -8 -3 -4 4 9 16 -1 15 -59 -3 -27 -8 -51 -12 -53 -10 -3 3 1
6 9 9 53 16 54 19 14 28 -22 4 -59 13 -83 18 -42 10 -119 12 -157 3z m35 -7
c0 -2 -7 -7 -16 -10 -8 -3 -12 -2 -9 4 6 10 25 14 25 6z m32 -39 c-26 -27 -29
-46 -5 -26 15 13 15 12 5 -6 -6 -11 -16 -27 -22 -35 -9 -12 -10 -11 -5 7 5 19
3 22 -12 16 -16 -6 -16 -4 2 18 21 24 47 48 54 49 3 0 -5 -10 -17 -23z m-200
-46 c-5 -14 -2 -14 21 2 44 28 43 19 -1 -19 -23 -19 -42 -40 -42 -45 0 -6 4
-7 10 -4 5 3 7 0 4 -8 -3 -8 -1 -18 5 -22 6 -3 11 -14 11 -23 -1 -10 -8 -4
-18 16 -14 25 -20 30 -30 20 -23 -23 -12 4 14 35 16 19 22 33 15 35 -9 3 -9 7
0 18 9 11 9 14 0 14 -7 0 -9 5 -5 11 10 16 24 -10 16 -30z m232 12 c4 -10 4
-14 0 -10 -9 9 -59 -64 -56 -80 2 -7 -1 -13 -6 -13 -17 0 -7 35 15 60 13 13
25 32 29 42 7 22 10 23 18 1z m166 7 c-8 -5 -19 -10 -25 -10 -5 0 -3 5 5 10 8
5 20 10 25 10 6 0 3 -5 -5 -10z m-85 -30 c3 -5 1 -10 -4 -10 -6 0 -11 5 -11
10 0 6 2 10 4 10 3 0 8 -4 11 -10z m235 -6 c0 -2 -11 -4 -25 -4 -14 0 -25 4
-25 9 0 4 11 6 25 3 14 -2 25 -6 25 -8z m-435 -25 c-5 -15 -4 -19 5 -14 9 6 9
3 1 -14 -9 -16 -9 -21 1 -21 7 -1 1 -11 -14 -23 -45 -37 -80 -90 -65 -99 9 -6
8 -8 -4 -8 -9 0 -20 -7 -23 -16 -12 -30 -6 -37 17 -18 l22 19 -19 -22 c-10
-12 -23 -21 -30 -20 -13 2 -35 28 -35 42 0 6 6 1 14 -9 14 -18 15 -18 15 -2 0
9 -5 27 -11 39 -9 19 -8 20 3 6 12 -15 15 -15 28 -1 8 9 14 34 14 59 -1 24 3
43 8 43 4 0 8 7 8 16 0 8 5 25 11 37 l12 21 8 -23 c7 -18 4 -27 -13 -40 -20
-17 -36 -61 -20 -61 4 1 20 19 35 42 22 31 26 43 16 49 -10 6 -10 11 0 23 18
22 24 20 16 -5z m327 14 c-6 -2 -10 -9 -6 -14 3 -5 -2 -9 -10 -9 -22 0 -29 18
-9 23 25 6 41 7 25 0z m-482 -10 c0 -5 -9 -19 -19 -32 -14 -18 -20 -21 -26
-11 -6 9 -4 11 5 5 9 -6 10 -1 5 16 -5 18 -4 20 4 9 9 -12 11 -12 17 3 6 17
14 23 14 10z m344 -10 c4 -10 4 -15 1 -11 -12 11 -64 -13 -70 -33 -4 -10 -13
-19 -22 -19 -14 0 -13 3 3 21 15 17 72 59 80 59 1 0 5 -8 8 -17z m86 -3 c8 -5
11 -10 5 -10 -5 0 -17 5 -25 10 -8 5 -10 10 -5 10 6 0 17 -5 25 -10z m-200
-60 c0 -5 -7 -10 -16 -10 -8 0 -13 -4 -10 -9 3 -5 -7 -11 -22 -14 -15 -3 -35
-9 -45 -12 -13 -6 -16 -3 -11 9 3 9 10 13 15 10 5 -3 17 0 26 5 10 6 14 11 10
11 -21 0 7 20 29 20 13 0 24 -4 24 -10z m-338 -42 c-5 -22 -18 -23 -26 -2 -4
9 -2 13 5 8 8 -4 9 1 4 16 -6 20 -5 21 7 9 8 -7 13 -21 10 -31z m455 36 c-3
-3 -12 -4 -19 -1 -8 3 -5 6 6 6 11 1 17 -2 13 -5z m-404 -32 c-4 -9 -17 -27
-30 -39 -13 -12 -23 -30 -23 -39 0 -23 -6 -15 -14 18 -5 22 -3 26 9 22 10 -4
15 0 15 10 0 9 4 16 9 16 5 0 13 9 16 20 4 11 10 18 15 15 5 -3 6 -13 3 -23z
m107 -12 c0 -5 -4 -10 -10 -10 -5 0 -10 5 -10 10 0 6 5 10 10 10 6 0 10 -4 10
-10z m180 -15 c0 -1 -11 -5 -25 -7 -16 -3 -25 -1 -25 7 0 8 9 10 25 7 14 -2
25 -6 25 -7z m-378 -12 c-5 -10 -7 -23 -5 -30 2 -6 -1 -14 -7 -18 -11 -7 -7
35 5 55 11 17 16 11 7 -7z m268 13 c0 -2 -8 -10 -17 -17 -16 -13 -17 -12 -4 4
13 16 21 21 21 13z m184 -4 c3 -5 -8 -6 -25 -4 -16 2 -29 6 -29 8 0 8 49 4 54
-4z m-324 -17 c0 -8 -2 -15 -4 -15 -2 0 -6 7 -10 15 -3 8 -1 15 4 15 6 0 10
-7 10 -15z m190 11 c0 -2 -9 -6 -20 -9 -11 -3 -18 -1 -14 4 5 9 34 13 34 5z
m-380 -26 c0 -11 -4 -20 -9 -20 -5 0 -7 9 -4 20 3 11 7 20 9 20 2 0 4 -9 4
-20z m632 8 c-4 -3 -36 -11 -72 -16 -36 -6 -72 -13 -81 -17 -10 -3 -19 -1 -22
7 -3 8 2 14 12 15 49 3 81 9 81 13 0 3 20 5 45 5 24 0 41 -3 37 -7z m-674 -25
c0 -10 3 -27 7 -38 7 -19 7 -19 -10 -4 -11 11 -15 24 -10 38 8 26 14 27 13 4z
m247 7 c-3 -5 -1 -19 5 -30 6 -11 7 -20 3 -20 -15 0 -32 49 -19 54 17 7 18 7
11 -4z m-82 -15 c-3 -9 -8 -14 -10 -11 -3 3 -2 9 2 15 9 16 15 13 8 -4z m306
11 c-2 -2 -30 -12 -61 -23 -55 -20 -56 -20 -45 -2 7 11 18 17 24 14 7 -2 23 0
35 5 23 9 55 13 47 6z m16 -16 c-3 -5 -12 -10 -18 -10 -7 0 -6 4 3 10 19 12
23 12 15 0z m-366 -50 c1 -13 0 -13 -9 0 -5 8 -9 24 -9 35 l0 20 9 -20 c5 -11
9 -27 9 -35z m-59 19 c0 -5 -5 -7 -12 -3 -8 5 -9 2 -5 -9 3 -10 2 -17 -2 -17
-11 0 -22 26 -14 34 10 10 33 7 33 -5z m110 1 c0 -5 -2 -10 -4 -10 -3 0 -8 5
-11 10 -3 6 -1 10 4 10 6 0 11 -4 11 -10z m-75 -9 c3 -5 1 -12 -5 -16 -5 -3
-10 1 -10 9 0 18 6 21 15 7z m305 -1 c-8 -5 -22 -10 -30 -10 -13 0 -13 1 0 10
8 5 22 10 30 10 13 0 13 -1 0 -10z m-432 -36 c4 2 7 -9 8 -24 1 -16 -4 -31
-10 -33 -7 -3 -11 11 -12 37 -1 22 1 35 3 28 3 -6 8 -10 11 -8z m244 -9 c3
-14 1 -25 -3 -25 -5 0 -9 11 -9 25 0 14 2 25 4 25 2 0 6 -11 8 -25z m-185 -1
c-3 -4 -2 -15 4 -25 7 -15 6 -21 -6 -25 -9 -4 -18 -4 -21 -2 -6 7 14 58 22 58
4 0 4 -3 1 -6z m229 -43 c-4 -6 -12 -11 -18 -11 -7 0 -7 4 1 13 7 9 7 18 1 25
-6 7 -3 6 6 -2 9 -8 13 -19 10 -25z m-198 4 c-3 -3 -9 2 -12 12 -6 14 -5 15 5
6 7 -7 10 -15 7 -18z m152 -12 c0 -12 -2 -12 -15 1 -8 8 -15 17 -15 20 0 3 7
3 15 0 8 -4 15 -13 15 -21z m-119 -33 c5 0 9 -4 9 -10 0 -14 -27 -1 -34 16 -3
8 -2 22 2 32 6 13 8 11 10 -10 2 -16 8 -28 13 -28z m65 38 c4 -7 3 -8 -4 -4
-7 4 -12 1 -12 -8 0 -8 5 -18 10 -21 6 -3 9 -16 9 -28 -1 -20 -2 -21 -6 -2 -3
11 -12 29 -19 40 -8 11 -14 23 -14 27 0 12 28 9 36 -4z m-144 -40 c-7 -7 -12
-8 -12 -2 0 14 12 26 19 19 2 -3 -1 -11 -7 -17z m38 18 c0 -3 -4 -8 -10 -11
-5 -3 -10 -1 -10 4 0 6 5 11 10 11 6 0 10 -2 10 -4z m166 -28 c-11 -15 -16
-18 -16 -7 0 16 21 42 28 34 2 -2 -3 -14 -12 -27z m50 -29 c-9 -19 -15 -26
-16 -16 0 17 21 59 27 53 2 -2 -3 -18 -11 -37z m-264 -101 c-7 -7 -12 -8 -12
-2 0 14 12 26 19 19 2 -3 -1 -11 -7 -17z"/>
<path d="M1750 4299 c0 -5 5 -7 10 -4 6 3 10 8 10 11 0 2 -4 4 -10 4 -5 0 -10
-5 -10 -11z"/>
<path d="M2405 4242 c-38 -15 -77 -26 -87 -24 -19 4 -50 -27 -85 -85 -26 -45
-24 -63 8 -63 11 0 22 -7 25 -15 4 -8 18 -15 33 -15 14 0 44 -9 66 -21 32 -18
49 -20 97 -15 32 4 74 14 94 22 21 9 46 13 57 10 26 -7 51 20 52 56 0 19 9 36
24 48 30 22 34 58 9 85 -11 11 -22 20 -26 20 -4 0 -12 4 -19 8 -6 4 -15 3 -18
-3 -5 -8 -11 -7 -22 1 -8 7 -42 14 -76 16 -49 2 -77 -3 -132 -25z m25 -146 c0
-10 -7 -12 -22 -8 -21 5 -21 6 -2 13 10 4 20 8 22 8 1 1 2 -5 2 -13z m-42 -43
c-10 -2 -28 -2 -40 0 -13 2 -5 4 17 4 22 1 32 -1 23 -4z"/>
<path d="M2850 4255 c-14 -7 -27 -12 -30 -10 -15 9 -52 -36 -61 -74 -10 -47
-8 -54 50 -140 37 -55 46 -59 77 -36 18 14 18 16 1 26 -22 13 -12 32 14 24 16
-5 19 -1 20 27 1 18 2 41 3 50 1 10 5 17 10 17 28 -2 33 57 8 86 -28 33 -64
45 -92 30z m-25 -166 c10 -14 1 -21 -19 -13 -9 3 -13 10 -10 15 7 12 21 11 29
-2z"/>
<path d="M1700 4080 c0 -5 5 -10 11 -10 5 0 7 5 4 10 -3 6 -8 10 -11 10 -2 0
-4 -4 -4 -10z"/>
<path d="M1652 4004 c-14 -9 -22 -26 -22 -43 0 -33 19 -91 29 -91 18 0 20 15
5 32 -13 14 -15 25 -8 50 8 27 15 34 42 36 24 2 38 -3 56 -22 26 -29 46 -34
46 -11 0 20 -69 65 -100 65 -14 0 -36 -7 -48 -16z"/>
<path d="M1784 3906 c-51 -51 -57 -85 -19 -110 13 -9 32 -16 42 -15 11 0 13 3
6 6 -15 5 -18 43 -3 43 5 0 13 -6 17 -14 4 -7 15 -16 23 -19 11 -4 10 -6 -5
-6 -18 -1 -18 -2 3 -17 29 -20 28 -44 0 -45 -22 0 -22 -1 -3 -9 42 -17 63 61
25 95 -16 15 -20 29 -18 64 2 35 0 45 -11 43 -8 -2 -11 3 -8 13 10 25 -3 17
-49 -29z"/>
<path d="M1936 3904 c-3 -8 1 -17 9 -20 8 -4 15 -16 15 -28 0 -17 -2 -18 -10
-6 -7 10 -8 -23 -4 -100 4 -63 8 -153 9 -200 3 -105 4 -110 75 -196 5 -7 6
-15 3 -18 -4 -3 1 -6 10 -6 9 0 17 -6 17 -13 0 -8 11 -20 25 -27 14 -7 25 -20
25 -28 0 -9 3 -13 6 -9 3 3 13 -1 22 -9 10 -7 26 -20 37 -28 16 -12 18 -17 8
-27 -18 -18 -16 -30 2 -23 11 5 13 2 9 -11 -5 -11 -2 -16 7 -15 32 5 43 -2 19
-11 l-25 -10 25 -21 c15 -13 18 -19 8 -15 -12 4 -15 2 -11 -9 3 -7 1 -14 -5
-14 -6 0 -8 -9 -5 -20 3 -13 0 -20 -8 -20 -10 -1 -9 -5 4 -14 14 -11 15 -16 5
-22 -8 -5 -3 -12 17 -20 17 -7 23 -13 14 -14 -9 0 -23 -7 -30 -16 -12 -15 -7
-16 54 -12 79 6 114 -10 96 -43 -5 -11 -8 -25 -6 -32 2 -7 -6 -32 -19 -57 -12
-24 -21 -46 -19 -49 3 -2 18 2 35 9 37 15 49 7 31 -23 -9 -13 4 -6 30 18 24
21 59 66 77 98 18 33 55 91 81 131 27 39 56 85 64 102 10 19 33 39 59 52 24
11 60 36 81 55 34 32 39 43 52 119 8 45 22 110 31 143 9 33 17 79 18 102 1 23
8 48 15 55 11 11 12 9 2 -9 -6 -12 -11 -28 -10 -35 0 -7 9 7 20 31 11 25 18
50 15 57 -3 7 -1 14 5 16 5 2 12 31 15 65 4 56 2 67 -20 100 l-26 38 0 -30 c0
-33 -23 -67 -57 -84 -33 -17 -63 -14 -63 6 0 13 3 14 11 6 15 -15 39 -5 33 12
-4 10 -12 11 -29 5 -13 -5 -37 -5 -56 0 -19 5 -51 12 -72 15 -48 8 -72 41 -62
87 l7 33 -36 -35 c-20 -19 -55 -63 -77 -97 -35 -53 -46 -63 -70 -63 -20 0 -29
-5 -29 -16 0 -9 -5 -12 -11 -8 -7 4 -20 -4 -30 -17 -17 -23 -18 -23 -38 -5
-11 10 -17 25 -15 34 4 11 1 10 -7 -3 -6 -11 -13 -22 -15 -23 -4 -6 -44 38
-44 49 0 5 -8 9 -17 7 -23 -3 -85 22 -100 42 -11 13 -14 13 -23 0 -6 -10 -10
-11 -10 -2 0 6 -8 20 -19 31 -10 10 -21 25 -23 32 -4 12 -7 12 -21 0 -10 -7
-17 -9 -17 -3 0 6 5 12 11 14 13 4 -35 61 -55 64 -8 1 -17 -4 -20 -12z m649
-123 c-3 -6 -11 -11 -17 -11 -6 0 -6 6 2 15 14 17 26 13 15 -4z m-406 -158 c1
-7 -3 -13 -9 -13 -5 0 -10 15 -9 33 0 27 2 29 9 12 5 -11 9 -26 9 -32z m645
39 c3 -5 -8 -9 -25 -10 -36 -1 -44 -6 -34 -22 5 -8 11 -8 20 0 9 8 14 0 19
-36 3 -26 6 -68 6 -95 0 -45 -2 -48 -31 -54 -17 -4 -34 -3 -38 1 -7 11 -22 15
-84 24 -38 5 -47 4 -43 -7 3 -7 -1 -13 -9 -13 -7 0 -21 -7 -30 -16 -8 -9 -22
-13 -30 -10 -8 3 -15 0 -15 -6 0 -6 -3 -9 -6 -5 -3 3 -5 7 -3 9 6 8 -23 48
-36 48 -21 0 -19 37 2 49 15 8 15 11 3 27 -14 16 -13 17 5 10 66 -27 176 -56
213 -56 42 0 96 25 87 40 -3 5 -23 6 -45 3 -21 -3 -47 -2 -57 2 -26 11 -76 13
-95 3 -10 -5 -19 -4 -23 2 -3 5 -17 10 -31 10 -17 0 -24 5 -24 20 0 22 10 26
27 9 9 -9 14 -5 19 15 3 14 13 26 21 26 8 0 12 -3 10 -7 -3 -5 1 -13 8 -20 10
-10 16 -9 25 3 10 11 16 12 26 3 9 -7 14 -8 14 -1 0 15 32 24 44 12 7 -7 19
-1 37 20 27 29 62 39 73 22z m-767 -44 c-3 -8 -6 -5 -6 6 -1 11 2 17 5 13 3
-3 4 -12 1 -19z m432 -179 c-16 -10 -23 -4 -14 10 3 6 11 8 17 5 6 -4 5 -9 -3
-15z m11 -29 c0 -5 -2 -10 -4 -10 -3 0 -8 5 -11 10 -3 6 -1 10 4 10 6 0 11 -4
11 -10z m45 -80 c-2 -31 -15 -36 -15 -6 0 14 -7 29 -15 32 -8 4 -12 10 -9 16
9 14 41 -19 39 -42z m-315 -144 c0 -11 -19 -15 -25 -6 -3 5 1 10 9 10 9 0 16
-2 16 -4z"/>
<path d="M1748 3738 c5 -5 16 -8 23 -6 8 3 3 7 -10 11 -17 4 -21 3 -13 -5z"/>
<path d="M2331 3694 c0 -11 3 -14 6 -6 3 7 2 16 -1 19 -3 4 -6 -2 -5 -13z"/>
<path d="M1900 3683 c0 -11 -5 -24 -12 -31 -15 -15 -6 -24 16 -16 17 7 22 49
6 59 -5 3 -10 -2 -10 -12z"/>
<path d="M1831 3324 c-50 -63 -42 -108 48 -289 85 -170 140 -234 188 -217 15
6 23 11 16 11 -7 1 -26 22 -44 47 -17 25 -51 67 -75 92 -24 26 -64 89 -90 139
l-48 93 18 70 c10 39 16 73 13 76 -2 3 -14 -7 -26 -22z"/>
<path d="M2165 3200 c-3 -5 -1 -10 4 -10 6 0 11 5 11 10 0 6 -2 10 -4 10 -3 0
-8 -4 -11 -10z"/>
<path d="M2125 3140 c3 -5 11 -10 16 -10 6 0 7 5 4 10 -3 6 -11 10 -16 10 -6
0 -7 -4 -4 -10z"/>
<path d="M2290 2900 c0 -5 5 -10 10 -10 6 0 10 5 10 10 0 6 -4 10 -10 10 -5 0
-10 -4 -10 -10z"/>
<path d="M2120 2810 c0 -5 5 -10 10 -10 6 0 10 5 10 10 0 6 -4 10 -10 10 -5 0
-10 -4 -10 -10z"/>
<path d="M2128 2783 c6 -2 18 -2 25 0 6 3 1 5 -13 5 -14 0 -19 -2 -12 -5z"/>
<path d="M2455 2699 c-5 -8 -4 -10 4 -5 16 10 64 -2 56 -14 -3 -5 -1 -11 5
-15 5 -3 10 -2 10 4 0 6 8 8 18 4 12 -4 11 -1 -5 11 -30 23 -79 31 -88 15z"/>
<path d="M2210 2681 c0 -6 4 -13 10 -16 6 -3 7 1 4 9 -7 18 -14 21 -14 7z"/>
<path d="M2054 2655 c-8 -20 8 -39 63 -71 30 -17 48 -23 55 -16 7 7 3 12 -10
16 -11 4 -23 13 -26 21 -3 9 -12 12 -23 8 -16 -6 -16 -5 -4 10 11 14 11 17 0
17 -12 0 -12 2 -1 9 11 7 10 10 -3 15 -27 10 -45 7 -51 -9z"/>
<path d="M1775 2570 c-23 -9 -20 -11 55 -34 25 -7 71 -25 102 -40 34 -15 60
-21 63 -16 3 6 0 10 -7 10 -8 0 -46 16 -87 35 -40 19 -79 35 -87 35 -9 0 -12
5 -9 10 7 12 -2 12 -30 0z"/>
<path d="M2180 2546 c0 -2 7 -9 15 -16 13 -11 14 -10 9 4 -5 14 -24 23 -24 12z"/>
<path d="M1645 2440 c-3 -5 14 -14 37 -20 24 -7 64 -23 91 -38 26 -14 50 -23
53 -19 6 6 -51 37 -128 67 -27 11 -50 15 -53 10z"/>
<path d="M1560 2293 c0 -28 3 -31 43 -37 23 -4 71 -22 107 -41 35 -19 69 -35
75 -35 18 1 -28 31 -109 71 -44 22 -88 47 -98 56 -17 15 -18 14 -18 -14z"/>
<path d="M2072 2301 c-11 -6 -8 -14 12 -36 26 -28 32 -22 20 23 -7 24 -12 26
-32 13z"/>
<path d="M2031 2268 c-1 -22 18 -33 32 -19 8 8 7 11 -5 11 -9 0 -19 6 -21 13
-3 7 -6 6 -6 -5z"/>
<path d="M2120 2190 c-12 -7 -12 -12 -3 -21 10 -10 14 -9 19 5 8 22 2 27 -16
16z"/>
<path d="M1976 2174 c-4 -11 1 -18 14 -21 11 -3 20 -12 20 -19 0 -22 28 -16
41 7 7 14 7 19 0 15 -5 -4 -19 2 -31 14 -24 24 -36 25 -44 4z"/>
<path d="M2140 2161 c0 -6 5 -13 10 -16 6 -3 10 1 10 9 0 9 -4 16 -10 16 -5 0
-10 -4 -10 -9z"/>
<path d="M1552 2079 c5 -15 116 -98 132 -99 16 0 -19 32 -77 72 -33 22 -57 34
-55 27z"/>
<path d="M1856 2014 c-22 -19 -31 -22 -37 -13 -6 10 -11 5 -18 -14 -6 -16 -15
-25 -21 -22 -5 3 -12 -7 -16 -22 -4 -15 -12 -34 -17 -41 -8 -11 -5 -19 13 -33
14 -10 32 -16 40 -13 8 3 11 2 7 -2 -4 -4 3 -12 16 -19 12 -6 21 -19 21 -28
-1 -9 3 -17 8 -17 6 0 7 -7 4 -15 -3 -10 -1 -15 7 -14 6 1 21 -2 31 -6 13 -6
21 -4 24 3 5 16 34 15 51 0 11 -11 12 -10 6 1 -4 8 -2 17 6 22 19 12 29 11 29
-2 0 -16 30 -43 38 -34 4 4 2 10 -5 12 -8 3 -10 15 -6 34 5 29 -10 42 -20 17
-3 -8 -6 -6 -6 5 -1 9 -6 17 -12 17 -6 0 -9 6 -6 14 4 9 -3 16 -19 20 -22 6
-47 42 -48 71 -1 11 -47 55 -58 55 -5 0 -8 5 -8 11 0 6 9 9 19 6 14 -3 18 -1
14 9 -4 10 0 12 11 8 9 -3 16 -1 16 5 0 19 -34 11 -64 -15z"/>
<path d="M2145 1851 c-3 -5 -1 -12 4 -15 12 -8 41 3 41 15 0 12 -37 12 -45 0z"/>
<path d="M1880 1726 c0 -9 6 -19 14 -22 8 -3 18 -19 21 -34 7 -34 77 -100 104
-100 11 0 23 -9 26 -21 7 -22 17 -19 21 6 1 8 -3 15 -8 15 -6 0 -3 10 8 22 10
12 14 18 7 15 -15 -9 -43 2 -43 17 0 6 -13 20 -30 29 -20 12 -27 23 -23 34 4
11 3 14 -5 9 -7 -4 -15 0 -18 9 -4 9 -13 14 -22 10 -8 -3 -23 2 -33 11 -18 16
-19 16 -19 0z"/>
<path d="M2522 1648 c-23 -51 -42 -99 -42 -107 0 -8 -6 -11 -16 -7 -12 5 -15
2 -10 -10 3 -8 6 -22 6 -29 0 -7 17 -35 38 -62 75 -96 94 -123 86 -123 -5 1
-34 34 -64 75 -30 41 -60 74 -66 75 -15 0 -26 42 -18 67 17 52 27 72 34 68 4
-3 11 2 14 11 3 8 2 12 -4 9 -14 -9 -12 1 5 36 9 16 21 27 26 23 8 -4 9 2 4
17 -5 19 -4 21 4 9 7 -9 11 -10 11 -3 0 6 -5 15 -11 18 -12 8 -49 -23 -49 -42
0 -7 -5 -13 -11 -13 -5 0 -8 -4 -5 -8 3 -5 -4 -25 -14 -45 -11 -20 -20 -44
-20 -53 0 -24 -38 -82 -58 -88 -9 -3 -22 -16 -27 -28 -6 -13 -15 -23 -22 -23
-6 0 -15 -3 -19 -7 -12 -13 -59 -9 -98 7 l-37 16 12 -23 c7 -13 -12 0 -42 29
-69 66 -129 110 -153 110 -12 0 -24 -15 -37 -44 -10 -23 -23 -43 -28 -43 -6 0
-19 17 -30 38 -26 49 -27 33 -1 -20 24 -50 24 -48 5 -48 -8 0 -26 17 -41 38
-24 34 -26 33 -10 -9 8 -20 -32 -42 -74 -41 -35 1 -38 -13 -8 -40 16 -14 35
-18 78 -16 50 2 62 -2 100 -30 24 -18 52 -32 62 -32 10 0 18 -7 18 -15 0 -8 5
-15 10 -15 14 0 12 -37 -2 -47 -26 -16 -105 -34 -150 -33 -25 1 -49 -4 -52 -9
-13 -21 32 -30 118 -24 l86 6 0 -33 c0 -24 -4 -31 -15 -26 -18 6 -18 5 -5 -28
6 -16 16 -24 29 -23 11 0 17 5 15 9 -3 4 2 8 10 8 9 0 16 4 16 9 0 14 32 23
44 11 7 -7 4 -10 -9 -10 -11 0 -27 -13 -36 -28 -19 -34 -88 -52 -193 -51 -70
1 -100 -11 -79 -32 8 -8 31 -8 84 0 87 13 206 18 215 8 15 -15 -7 -38 -33 -36
-16 2 -40 -5 -55 -15 -15 -10 -45 -20 -68 -23 -27 -4 -40 -11 -40 -21 0 -8 -3
-13 -6 -9 -3 3 -17 2 -30 -3 -21 -8 -27 -6 -43 21 -11 18 -22 26 -25 20 -4 -6
-17 -11 -29 -12 -12 0 -17 -3 -10 -5 7 -3 -3 -19 -23 -40 -26 -25 -33 -40 -29
-54 4 -12 2 -20 -6 -20 -6 0 -1 -11 13 -25 22 -22 30 -24 69 -17 24 4 42 11
39 16 -7 11 36 31 100 47 30 7 60 16 65 20 6 4 28 10 51 13 52 9 101 39 116
71 9 20 8 32 -6 63 -16 35 -16 40 -1 76 10 24 14 52 11 70 -5 22 -1 35 15 52
17 18 20 32 18 68 l-4 45 53 -57 c70 -76 238 -343 227 -361 -2 -5 8 -14 23
-21 25 -12 26 -13 7 -21 -15 -5 -7 -8 30 -10 76 -4 116 1 139 17 11 8 26 14
33 14 16 0 103 59 103 71 0 5 11 11 24 15 26 6 38 25 31 47 -7 20 17 41 66 58
l46 15 1 -39 c2 -47 4 -49 37 -53 32 -3 32 12 0 20 -19 5 -25 13 -25 34 0 16
7 37 15 48 8 10 15 26 15 34 0 9 -5 7 -16 -8 -8 -12 -24 -22 -34 -22 -10 0
-21 -6 -23 -12 -4 -9 -6 -8 -6 3 -1 8 4 20 9 25 8 8 6 15 -5 24 -13 11 -15 9
-15 -14 0 -17 -4 -25 -11 -20 -6 3 -15 0 -20 -7 -7 -11 -9 -9 -9 6 -1 19 -1
19 -15 1 -16 -21 -39 -12 -30 12 4 11 -3 8 -19 -7 -15 -14 -26 -19 -26 -12 0
7 -4 10 -9 6 -6 -3 -5 8 1 27 14 45 15 67 3 68 -5 0 -10 -6 -10 -12 0 -7 -8
-12 -18 -10 -10 2 -17 -3 -17 -13 0 -8 -5 -15 -11 -15 -11 0 -4 15 19 43 14
16 13 17 -22 12 -32 -4 -37 -2 -32 12 5 13 4 14 -9 3 -19 -16 -20 -1 -1 25 7
11 16 31 20 45 6 19 5 22 -3 10 -9 -12 -12 -13 -20 -1 -7 11 -9 11 -13 0 -3
-8 -9 -10 -14 -6 -4 4 -3 17 4 27 15 24 15 33 1 24 -6 -3 1 12 15 35 15 23 22
41 16 41 -7 0 -7 7 1 21 6 12 7 19 1 16 -5 -4 -17 -26 -26 -51 -9 -24 -23 -46
-30 -49 -8 -3 -5 10 8 37 45 90 76 167 76 189 0 37 -114 196 -141 197 -10 0
-30 -32 -57 -92z m-447 -208 c7 -11 -23 -34 -48 -36 -84 -8 -121 -7 -124 3 -5
13 16 20 67 22 19 1 41 8 48 15 14 13 48 11 57 -4z m496 -42 c19 -24 26 -37
16 -29 -20 16 -61 71 -54 71 3 0 20 -19 38 -42z m-489 -27 c4 -4 -10 -5 -32
-3 -22 2 -43 8 -46 14 -6 10 66 0 78 -11z m155 13 c-3 -3 -12 -4 -19 -1 -8 3
-5 6 6 6 11 1 17 -2 13 -5z m-259 -11 c-10 -2 -28 -2 -40 0 -13 2 -5 4 17 4
22 1 32 -1 23 -4z m261 -110 l33 -48 -37 40 c-19 22 -41 49 -47 60 -21 37 15
0 51 -52z m-199 -177 c0 -8 -4 -17 -9 -21 -12 -7 -24 12 -16 25 9 15 25 12 25
-4z"/>
<path d="M2064 1640 c0 -12 7 -15 23 -12 25 5 23 17 -5 24 -12 3 -18 -1 -18
-12z"/>
<path d="M2130 1621 c0 -5 5 -13 10 -16 6 -3 10 -2 10 4 0 5 -4 13 -10 16 -5
3 -10 2 -10 -4z"/>
<path d="M2191 1532 c-23 -8 -10 -22 19 -20 17 1 30 7 30 13 0 10 -27 14 -49
7z"/>
<path d="M2140 1515 c-10 -12 -10 -15 4 -15 9 0 16 -4 16 -10 0 -5 5 -10 10
-10 6 0 10 7 10 15 0 8 -5 15 -11 15 -5 0 -7 5 -4 10 10 16 -11 12 -25 -5z"/>
<path d="M2088 1498 c5 -5 16 -8 23 -6 8 3 3 7 -10 11 -17 4 -21 3 -13 -5z"/>
<path d="M2711 1364 c0 -11 3 -14 6 -6 3 7 2 16 -1 19 -3 4 -6 -2 -5 -13z"/>
<path d="M1916 1300 c12 -12 28 -20 35 -18 9 3 0 12 -21 22 l-35 18 21 -22z"/>
<path d="M2907 1290 c3 -11 10 -23 16 -27 7 -4 8 0 4 11 -5 14 -3 17 8 12 8
-3 15 -1 15 3 0 9 -24 21 -40 21 -4 0 -6 -9 -3 -20z"/>
<path d="M1890 1296 c0 -2 8 -10 18 -17 15 -13 16 -12 3 4 -13 16 -21 21 -21
13z"/>
<path d="M2730 1261 c-7 -15 -7 -21 0 -21 12 0 25 28 17 36 -3 3 -10 -4 -17
-15z"/>
<path d="M1685 1250 c-11 -5 -32 -20 -46 -32 -22 -19 -25 -27 -18 -46 7 -19
12 -21 28 -12 11 5 33 10 48 10 33 0 72 24 60 36 -4 5 -27 7 -50 5 -38 -2 -41
-1 -26 13 8 9 35 20 60 25 l44 9 -40 0 c-22 1 -49 -3 -60 -8z"/>
<path d="M2925 1202 c9 -19 12 -45 8 -60 -4 -19 -3 -23 7 -17 8 5 10 21 7 46
-3 26 -2 37 6 32 6 -4 8 0 4 10 -3 9 -1 17 6 20 7 2 -2 4 -20 4 l-32 0 14 -35z"/>
<path d="M2726 1221 c-3 -5 1 -11 9 -14 9 -4 12 -1 8 9 -6 16 -10 17 -17 5z"/>
<path d="M2966 1205 c-9 -23 -8 -25 9 -25 17 0 19 9 6 28 -7 11 -10 10 -15 -3z"/>
<path d="M3020 1196 c0 -2 8 -10 18 -17 15 -13 16 -12 3 4 -13 16 -21 21 -21
13z"/>
<path d="M1030 1178 c0 -19 -34 -42 -65 -44 -11 -1 -30 7 -42 19 -28 25 -35
19 -42 -36 l-6 -42 -85 1 c-47 1 -105 2 -129 3 -26 0 -58 -7 -80 -19 -20 -11
-65 -31 -101 -44 -36 -13 -88 -36 -116 -51 -50 -26 -53 -26 -83 -11 -17 9 -38
31 -47 49 -16 29 -18 30 -25 12 -12 -30 -11 -47 3 -39 6 4 4 -3 -5 -16 -12
-17 -13 -28 -6 -42 8 -16 6 -25 -10 -42 -15 -16 -21 -35 -21 -71 0 -26 3 -45
7 -41 4 3 6 26 4 50 -1 29 3 47 14 56 10 9 15 9 15 1 0 -6 18 0 40 14 32 20
38 22 33 7 -4 -9 -10 -20 -15 -23 -11 -7 -38 -120 -32 -130 2 -4 -3 -10 -12
-13 -14 -5 -16 0 -11 35 6 49 -7 40 -22 -15 -8 -30 -7 -45 4 -65 8 -14 14 -21
15 -16 0 13 20 -16 20 -30 0 -5 -5 -3 -10 5 -7 11 -10 12 -10 2 0 -8 9 -16 20
-19 11 -3 20 -12 20 -19 0 -8 4 -14 9 -14 5 0 21 -23 35 -52 20 -39 23 -54 13
-60 -8 -5 -7 -8 6 -8 10 0 17 -6 16 -13 -4 -30 2 -39 20 -34 13 3 21 -1 24
-14 4 -13 14 -19 36 -19 17 0 31 5 31 11 0 6 -7 9 -15 6 -8 -4 -17 -2 -20 3
-4 6 3 10 14 10 11 0 25 -8 30 -17 9 -16 12 -16 20 -3 7 10 7 16 1 18 -6 2
-10 10 -10 18 0 11 4 12 19 4 14 -7 22 -7 26 1 5 6 12 4 22 -8 8 -10 11 -12 7
-4 -5 10 0 12 26 6 28 -6 32 -5 27 9 -4 9 -2 16 3 16 6 0 10 -13 10 -30 0 -16
4 -30 9 -30 6 0 8 9 6 20 -4 21 9 27 20 10 4 -6 11 -8 16 -4 6 3 13 -3 16 -15
6 -23 11 -25 32 -12 8 5 11 16 8 26 -4 9 -3 14 3 10 6 -3 10 -10 10 -15 0 -6
8 -19 17 -30 12 -14 19 -16 24 -8 6 9 12 8 23 -2 9 -7 19 -10 23 -6 3 3 1 6
-6 6 -7 0 -9 5 -6 10 4 6 11 8 16 4 12 -7 41 15 34 26 -3 4 2 13 10 20 9 8 15
8 15 2 0 -6 -6 -13 -12 -15 -8 -3 -6 -6 5 -6 9 -1 17 -5 17 -11 0 -5 5 -10 11
-10 8 0 8 4 0 14 -9 10 -8 15 4 20 8 3 15 1 15 -3 0 -5 16 -9 35 -8 19 1 35 5
35 10 0 5 7 7 15 3 8 -3 21 2 30 10 8 9 15 12 15 7 0 -4 4 -1 10 7 5 8 12 11
15 8 4 -4 -15 -20 -41 -37 -27 -17 -43 -31 -36 -31 17 0 136 55 170 78 15 11
38 23 52 27 14 4 37 19 52 33 35 32 43 25 29 -25 -18 -62 -10 -73 8 -13 14 44
25 58 51 72 l33 17 -29 6 c-58 13 -67 18 -105 52 -23 21 -39 44 -38 57 0 14 2
16 6 6 8 -23 55 -70 85 -86 32 -16 126 -25 134 -12 3 5 0 15 -6 23 -10 12 -9
15 5 15 10 0 23 -7 29 -15 10 -14 18 -11 61 16 28 18 44 34 37 36 -7 3 -19 -1
-27 -7 -12 -10 -18 -10 -30 0 -8 7 -22 9 -31 6 -9 -3 -21 -3 -27 1 -8 5 -2 10
14 13 25 5 25 6 13 36 -11 26 -17 31 -38 27 -16 -3 -23 -10 -19 -19 4 -10 10
-11 24 -3 11 5 19 6 19 1 0 -18 -40 -20 -70 -5 -44 22 -62 65 -68 163 -5 101
10 185 43 234 17 25 20 36 11 36 -7 0 -19 -7 -26 -15 -7 -8 -17 -15 -23 -15
-10 0 -23 -10 -72 -58 -12 -12 -26 -39 -29 -60 -16 -88 -17 -125 -6 -151 10
-25 8 -34 -19 -80 -33 -54 -37 -71 -21 -71 5 0 7 7 4 15 -4 8 -1 15 5 15 6 0
10 -13 9 -30 -2 -20 -7 -29 -15 -26 -7 3 -13 -2 -13 -11 0 -10 -3 -13 -9 -7
-13 14 -20 91 -10 101 6 6 3 15 -7 24 -15 12 -16 12 -9 -10 6 -20 4 -23 -10
-18 -9 4 -19 7 -21 7 -2 0 -4 9 -4 19 0 11 -4 22 -9 26 -6 3 -7 -9 -4 -31 5
-32 4 -36 -10 -31 -12 4 -17 1 -17 -11 0 -14 -5 -12 -21 8 l-20 25 6 -35 6
-35 -16 34 c-8 18 -15 42 -15 52 0 10 -4 21 -10 24 -6 4 -10 -8 -10 -29 0 -29
-3 -34 -17 -29 -13 5 -15 2 -10 -11 4 -10 3 -15 -3 -11 -6 3 -10 0 -10 -7 0
-8 -5 -6 -11 5 -5 9 -19 17 -30 17 -11 0 -17 -4 -14 -10 10 -16 -11 -11 -26 6
-11 14 -13 14 -21 0 -5 -9 -15 -13 -24 -9 -14 5 -14 3 -6 -14 7 -12 7 -25 1
-34 -5 -7 -9 -10 -9 -5 0 5 -7 3 -15 -4 -13 -11 -18 -10 -30 6 -13 18 -14 16
-16 -21 -1 -22 -3 -32 -6 -22 -2 9 -8 15 -12 12 -5 -2 -6 8 -4 23 4 26 4 26
-11 8 -9 -11 -16 -27 -16 -35 0 -13 -2 -13 -9 -2 -5 7 -6 22 -3 34 4 16 2 19
-12 14 -10 -4 -19 -7 -22 -7 -2 0 -1 -7 2 -15 4 -8 1 -15 -6 -15 -8 0 -11 9
-8 24 7 33 -17 41 -42 16 -11 -11 -21 -20 -23 -20 -8 0 -6 60 3 65 5 3 15 16
21 28 11 20 10 20 -16 -3 -15 -14 -35 -41 -46 -60 -10 -19 -18 -29 -19 -22 0
7 7 26 15 42 9 17 11 30 6 30 -5 0 -12 -7 -15 -16 -3 -8 -10 -12 -16 -9 -5 3
-10 2 -10 -4 0 -6 -13 -9 -30 -8 -27 2 -44 17 -19 17 5 0 7 5 3 12 -4 7 -3 8
4 4 7 -4 12 -2 12 3 0 6 5 11 12 11 9 0 9 -3 0 -12 -7 -7 -12 -17 -12 -22 0
-13 78 63 92 89 7 14 0 10 -23 -11 -19 -17 -44 -31 -56 -32 -23 -1 -23 -1 -3
21 11 11 20 26 20 31 0 6 -15 -5 -32 -24 -18 -19 -36 -34 -41 -32 -5 2 -7 -4
-3 -13 3 -10 2 -14 -5 -10 -6 4 -13 -3 -16 -16 -6 -21 -7 -22 -13 -3 -4 10 -3
28 3 39 6 11 10 24 9 29 -2 4 3 14 9 22 7 8 7 14 1 14 -5 0 -16 -7 -23 -17
-11 -13 -11 -17 -1 -20 6 -3 9 -9 6 -15 -4 -6 -9 -5 -15 3 -6 10 -13 7 -28
-12 -11 -13 -20 -29 -21 -36 0 -21 -20 -25 -36 -8 -16 15 -15 18 4 44 15 20
17 32 10 45 -6 11 -6 21 1 30 6 7 7 17 3 22 -4 5 -3 6 2 2 5 -4 15 -3 23 3 10
9 13 8 13 -1 0 -9 7 -7 21 6 l22 19 -18 -35 -17 -35 34 35 c18 19 32 40 29 45
-2 6 0 7 4 2 5 -4 16 0 26 9 9 8 23 16 31 18 7 1 19 6 27 10 11 7 13 5 7 -9
-7 -20 0 -16 53 30 13 11 21 14 17 8 -4 -7 -3 -13 2 -13 6 0 12 6 15 14 3 7
22 17 42 20 20 4 44 10 52 13 13 5 15 2 11 -15 -3 -12 0 -23 7 -26 7 -2 12 3
11 12 -1 17 22 19 114 8 19 -2 41 1 49 7 11 10 13 8 6 -12 l-7 -24 28 20 c31
22 160 73 184 73 10 0 9 3 -4 13 -9 7 -17 17 -16 22 5 24 -1 44 -20 66 -16 20
-19 21 -20 7z m30 -76 c0 -22 -6 -29 -35 -38 -19 -6 -35 -9 -35 -6 0 8 55 71
63 71 4 1 7 -11 7 -27z m237 -104 c-12 -40 -13 -56 -7 -75 4 -16 1 -85 -4 -91
-3 -3 -6 2 -6 12 0 11 -5 15 -12 10 -7 -4 -10 -4 -6 0 4 5 3 19 -2 32 -6 15
-6 24 0 24 5 0 7 7 4 15 -4 8 -2 15 4 15 5 0 8 10 8 23 -2 20 19 77 29 77 2 0
-2 -19 -8 -42z m-834 -295 c-3 -7 -6 -13 -8 -13 -2 0 -5 6 -8 13 -3 8 1 14 8
14 7 0 11 -6 8 -14z m139 -25 c-7 -7 -12 -8 -12 -2 0 14 12 26 19 19 2 -3 -1
-11 -7 -17z m758 7 c10 -12 10 -18 0 -30 -9 -10 -9 -15 -1 -15 6 0 11 -5 11
-12 0 -21 -27 14 -34 45 -7 30 4 36 24 12z m-162 -31 c4 2 8 -27 8 -65 0 -38
-3 -69 -8 -69 -4 0 -8 6 -8 14 0 8 -7 13 -16 12 -9 0 -22 8 -30 19 -12 19 -12
21 6 22 11 1 20 -3 20 -8 0 -6 -5 -7 -12 -3 -7 4 -8 3 -4 -4 4 -6 13 -9 22 -5
10 4 12 9 4 18 -8 10 -8 42 0 90 1 6 4 2 7 -8 2 -9 8 -15 11 -13z m-812 -194
c0 -12 -4 -16 -9 -11 -5 5 -6 14 -3 20 10 15 12 14 12 -9z m44 -14 c0 -3 -4
-8 -10 -11 -5 -3 -10 -1 -10 4 0 6 5 11 10 11 6 0 10 -2 10 -4z"/>
<path d="M3005 1170 c-3 -5 -2 -17 3 -26 8 -14 10 -12 10 9 0 29 -3 33 -13 17z"/>
<path d="M2967 1156 c-6 -15 1 -26 15 -26 11 0 10 27 -1 34 -5 3 -11 0 -14 -8z"/>
<path d="M3136 1143 c-6 -14 -5 -15 5 -6 7 7 10 15 7 18 -3 3 -9 -2 -12 -12z"/>
<path d="M2795 1089 c-4 -6 -5 -12 -2 -15 2 -3 7 2 10 11 7 17 1 20 -8 4z"/>
<path d="M3246 1039 c10 -11 20 -16 22 -10 2 6 15 11 28 11 14 0 22 4 19 10
-3 6 -25 10 -47 10 -41 0 -41 0 -22 -21z"/>
<path d="M1202 1005 c-7 -14 -12 -34 -12 -43 1 -9 7 1 15 23 16 45 14 58 -3
20z"/>
<path d="M1675 999 c-13 -19 5 -23 38 -6 l32 16 -32 0 c-17 1 -35 -4 -38 -10z"/>
<path d="M3150 1000 c0 -5 5 -10 11 -10 5 0 7 5 4 10 -3 6 -8 10 -11 10 -2 0
-4 -4 -4 -10z"/>
<path d="M3280 990 c6 -11 13 -20 16 -20 2 0 0 9 -6 20 -6 11 -13 20 -16 20
-2 0 0 -9 6 -20z"/>
<path d="M772 988 c-15 -15 -16 -31 0 -26 6 2 12 12 14 21 3 20 2 21 -14 5z"/>
<path d="M835 980 c-19 -8 -19 -9 3 -9 12 -1 22 4 22 9 0 6 -1 10 -2 9 -2 0
-12 -4 -23 -9z"/>
<path d="M631 957 c-13 -21 -12 -21 5 -5 10 10 16 20 13 22 -3 3 -11 -5 -18
-17z"/>
<path d="M655 954 c-11 -17 -12 -25 -4 -22 6 2 16 14 20 26 11 29 5 28 -16 -4z"/>
<path d="M3110 950 c0 -5 5 -10 10 -10 6 0 10 5 10 10 0 6 -4 10 -10 10 -5 0
-10 -4 -10 -10z"/>
<path d="M2885 903 c6 -42 4 -50 -15 -61 -22 -13 -44 -8 -25 6 6 4 16 15 23
24 12 14 10 16 -9 11 -18 -5 -21 -3 -16 10 10 27 -12 30 -25 3 -8 -18 -8 -33
-1 -48 13 -30 -3 -68 -29 -68 -18 0 -18 2 -4 22 20 28 21 44 1 28 -13 -10 -15
-9 -15 9 0 11 -4 21 -9 21 -14 0 -21 -28 -14 -60 6 -35 -10 -60 -40 -60 -20 0
-20 0 1 23 12 13 22 27 22 33 0 5 -4 3 -9 -5 -11 -17 -32 -5 -24 14 3 8 0 15
-6 15 -15 0 -32 -35 -22 -46 14 -15 -7 -54 -29 -54 -11 0 -20 5 -20 10 0 6 6
10 14 10 8 0 17 7 20 16 5 14 4 15 -8 5 -18 -15 -29 0 -19 26 4 13 -1 11 -24
-9 -28 -27 -53 -36 -53 -20 0 4 5 13 12 20 9 9 7 12 -10 12 -12 0 -22 -5 -22
-11 0 -5 -6 -7 -12 -4 -7 4 -2 -3 12 -14 29 -24 41 -26 57 -10 9 9 10 7 6 -10
-3 -11 -11 -21 -18 -21 -8 0 0 -25 21 -67 37 -76 48 -104 45 -117 -1 -5 5 -6
13 -3 8 3 22 -3 31 -13 10 -11 22 -17 27 -14 4 3 8 2 7 -3 -4 -20 4 -33 46
-79 24 -27 45 -52 45 -56 0 -5 10 -8 22 -8 22 0 22 0 -2 17 -29 20 -49 44 -50
58 0 5 19 -9 41 -33 l41 -42 453 0 453 0 15 63 c19 74 32 212 18 182 -9 -20
-10 -20 -10 1 -1 11 2 24 7 28 4 4 8 11 8 14 10 50 36 66 62 40 7 -7 12 -8 12
-2 0 5 -44 33 -97 61 -54 28 -120 63 -147 77 -27 14 -59 26 -72 26 -13 0 -35
11 -50 25 -45 42 -41 28 5 -19 24 -24 41 -48 38 -53 -3 -4 2 -17 10 -28 15
-19 15 -19 8 5 -6 20 -1 17 23 -15 17 -22 27 -41 21 -43 -5 -2 -5 -12 2 -23 7
-15 7 -24 0 -33 -6 -8 -8 -22 -4 -31 4 -12 3 -16 -4 -12 -6 4 -13 1 -16 -5 -3
-7 -5 1 -4 18 0 17 -3 36 -7 43 -4 7 -2 18 4 26 10 12 9 15 -3 15 -8 0 -17 -3
-20 -7 -2 -5 -2 -2 0 6 5 18 -6 51 -17 51 -4 0 -6 -9 -3 -20 6 -22 -12 -28
-20 -7 -3 6 -6 2 -6 -10 -1 -13 2 -23 7 -23 4 0 8 -18 10 -40 1 -25 -2 -40 -9
-40 -6 0 -9 6 -6 13 3 7 -2 24 -10 38 -14 23 -14 23 -10 2 9 -40 -9 -25 -23
20 -8 23 -15 49 -16 57 0 8 -11 33 -23 55 -14 26 -20 31 -16 15 16 -64 23
-106 18 -114 -4 -5 -1 -6 5 -2 17 10 35 -41 22 -62 -9 -16 -9 -15 -10 1 0 10
-4 16 -9 13 -5 -3 -12 1 -15 10 -4 9 -9 15 -11 12 -3 -3 2 -19 11 -36 14 -30
14 -33 -5 -53 l-19 -21 3 43 c3 24 2 36 -1 27 -3 -10 -9 -18 -14 -18 -11 0
-21 30 -13 42 3 6 1 8 -5 4 -5 -3 -13 0 -15 6 -4 10 -6 10 -6 0 -1 -7 -6 -10
-13 -6 -8 5 -9 2 -5 -10 4 -11 3 -15 -4 -11 -6 4 -8 20 -4 38 4 22 3 28 -3 18
-8 -11 -12 -10 -21 7 -6 11 -8 27 -5 35 3 8 1 18 -5 22 -6 3 -11 0 -11 -9 0
-8 -5 -16 -12 -18 -7 -3 -11 -19 -10 -39 1 -19 -3 -41 -8 -49 -7 -11 -8 -5 -4
20 4 26 3 31 -5 20 -6 -8 -11 -23 -11 -32 0 -9 -4 -19 -9 -22 -5 -4 -5 10 0
32 12 52 11 59 -6 36 -17 -22 -19 -15 -5 20 6 17 6 26 0 26 -6 0 -10 7 -10 15
0 8 -4 15 -10 15 -5 0 -10 -11 -10 -25 0 -14 -4 -25 -10 -25 -5 0 -10 -17 -11
-37 0 -31 -2 -34 -9 -18 -5 11 -9 36 -10 55 -1 37 -22 74 -35 62 -5 -4 -5 2
-1 13 4 10 9 40 12 65 6 53 -11 36 -21 -21 -3 -19 -10 -38 -16 -43 -14 -15
-36 23 -31 53 l4 26 -18 -24 -17 -24 -9 22 c-5 13 -12 19 -19 15 -7 -4 -9 -3
-6 3 4 6 1 23 -7 37 -13 25 -14 26 -27 7 -16 -22 -59 -38 -59 -22 0 6 5 11 11
11 8 0 8 5 -1 15 -22 27 -31 16 -25 -32z m95 -23 c0 -5 -2 -10 -4 -10 -3 0 -8
5 -11 10 -3 6 -1 10 4 10 6 0 11 -4 11 -10z m157 -132 c-3 -8 -6 -5 -6 6 -1
11 2 17 5 13 3 -3 4 -12 1 -19z m165 -101 l-10 -42 -1 60 c0 46 2 56 10 42 7
-11 7 -32 1 -60z m495 36 c-3 -10 -5 -4 -5 12 0 17 2 24 5 18 2 -7 2 -21 0
-30z m-600 -25 c-3 -8 -6 -5 -6 6 -1 11 2 17 5 13 3 -3 4 -12 1 -19z m503 -28
c0 -22 -2 -40 -4 -40 -6 0 -36 60 -36 72 0 4 9 8 20 8 17 0 20 -7 20 -40z
m-320 0 c0 -5 -2 -10 -4 -10 -3 0 -8 5 -11 10 -3 6 -1 10 4 10 6 0 11 -4 11
-10z m290 -10 c0 -19 -18 -19 -23 -1 -3 14 -1 18 9 14 8 -3 14 -9 14 -13z
m-1002 -30 c7 -11 9 -20 5 -20 -10 0 -43 32 -43 41 0 14 25 0 38 -21z m1072
20 c0 -5 -2 -10 -4 -10 -3 0 -8 5 -11 10 -3 6 -1 10 4 10 6 0 11 -4 11 -10z
m-30 -63 c0 -2 -7 -4 -15 -4 -8 0 -15 4 -15 8 0 4 -3 16 -6 26 -6 15 -3 14 15
-4 11 -12 21 -24 21 -26z m-1002 -5 c2 -7 -2 -10 -12 -6 -9 3 -16 11 -16 16 0
13 23 5 28 -10z"/>
<path d="M2990 939 c0 -5 5 -7 10 -4 6 3 10 8 10 11 0 2 -4 4 -10 4 -5 0 -10
-5 -10 -11z"/>
<path d="M452 927 c-8 -10 -6 -13 9 -13 10 0 19 6 19 13 0 7 -4 13 -9 13 -5 0
-13 -6 -19 -13z"/>
<path d="M1175 885 c-4 -30 -5 -65 -2 -77 4 -12 1 -29 -6 -37 -10 -14 -10 -14
4 -3 19 15 31 60 17 68 -4 3 -6 28 -2 55 4 27 4 49 1 49 -3 0 -9 -25 -12 -55z"/>
<path d="M3050 910 c0 -5 5 -10 10 -10 6 0 10 5 10 10 0 6 -4 10 -10 10 -5 0
-10 -4 -10 -10z"/>
<path d="M529 872 c-14 -15 -29 -36 -32 -47 -6 -16 -3 -16 14 5 11 14 29 35
40 48 27 31 9 27 -22 -6z"/>
<path d="M3420 883 c0 -13 5 -23 10 -23 13 0 13 11 0 30 -8 12 -10 11 -10 -7z"/>
<path d="M996 873 c-6 -14 -5 -15 5 -6 7 7 10 15 7 18 -3 3 -9 -2 -12 -12z"/>
<path d="M655 828 c-16 -21 -43 -55 -59 -74 -16 -19 -26 -37 -24 -40 3 -3 18
10 33 28 22 26 27 29 21 11 -11 -34 1 -28 20 10 16 29 16 31 1 18 -29 -23 -19
6 14 44 18 20 30 37 28 39 -2 2 -17 -14 -34 -36z"/>
<path d="M620 849 c0 -5 5 -7 10 -4 6 3 10 8 10 11 0 2 -4 4 -10 4 -5 0 -10
-5 -10 -11z"/>
<path d="M3149 855 c-4 -5 2 -28 12 -50 12 -28 18 -34 18 -19 1 11 -3 24 -8
30 -5 5 -11 18 -13 29 -2 11 -6 16 -9 10z"/>
<path d="M334 825 c-10 -8 -14 -15 -8 -15 6 0 17 7 24 15 16 19 9 19 -16 0z"/>
<path d="M310 785 c-7 -9 -11 -17 -9 -20 3 -2 10 5 17 15 14 24 10 26 -8 5z"/>
<path d="M865 780 c-3 -5 -1 -10 4 -10 6 0 11 5 11 10 0 6 -2 10 -4 10 -3 0
-8 -4 -11 -10z"/>
<path d="M3410 770 c0 -11 4 -20 9 -20 5 0 7 9 4 20 -3 11 -7 20 -9 20 -2 0
-4 -9 -4 -20z"/>
<path d="M664 758 l-19 -23 23 19 c21 18 27 26 19 26 -2 0 -12 -10 -23 -22z"/>
<path d="M1595 770 c3 -5 8 -10 11 -10 2 0 4 5 4 10 0 6 -5 10 -11 10 -5 0 -7
-4 -4 -10z"/>
<path d="M1634 768 c12 -7 21 -7 28 0 6 6 0 10 -18 10 -23 0 -24 -2 -10 -10z"/>
<path d="M1480 741 c0 -6 4 -13 10 -16 6 -3 7 1 4 9 -7 18 -14 21 -14 7z"/>
<path d="M1650 720 c0 -5 9 -14 20 -20 22 -12 27 -1 8 18 -14 14 -28 16 -28 2z"/>
<path d="M3416 717 c3 -10 9 -15 12 -12 3 3 0 11 -7 18 -10 9 -11 8 -5 -6z"/>
<path d="M3840 675 c7 -8 19 -15 27 -15 13 0 13 3 3 15 -7 8 -19 15 -27 15
-13 0 -13 -3 -3 -15z"/>
<path d="M500 421 c0 -5 7 -11 14 -14 10 -4 13 -1 9 9 -6 15 -23 19 -23 5z"/>
<path d="M940 390 c-13 -8 -13 -10 2 -10 9 0 20 5 23 10 8 13 -5 13 -25 0z"/>
</g>
</svg>
